# xmcd
#
# Track frame offsets:
#	150
#	16460
#	33582
#	60494
#	78335
#	100098
#	118799
#	140957
#	158496
#	178918
#
# Disc length: 2597 seconds
#
# Revision: 1
# Processed by: cddbd v1.5.1PL2 Copyright (c) Steve Scherf et al.
# Submitted via: EasyCDDAExtractor 7.1.0.1
#
DISCID=820a230a
DTITLE=Erensya Sefaradi - mi ijo
DYEAR=2006
DGENRE=Acid Punk
TTITLE0=mi ijo
TTITLE1=la kaza ke nasi
TTITLE2=amor sin esperansa
TTITLE3=ke me estas avlando
TTITLE4=ven mi kerida
TTITLE5=aprontar el ashuar
TTITLE6=el vino es la verdad
TTITLE7=asibiva yo
TTITLE8=solo esto solo esto
TTITLE9=kuando esto en tus brasus
EXTD=
EXTT0=
EXTT1=
EXTT2=
EXTT3=
EXTT4=
EXTT5=
EXTT6=
EXTT7=
EXTT8=
EXTT9=
PLAYORDER=
